<svg xmlns="http://www.w3.org/2000/svg" viewBox="0 0 223.59 161.74"><defs><style>.cls-1{fill:#064893;}.cls-2{fill:#7786be;}</style></defs><title>Recurso 1</title><g id="Capa_2" data-name="Capa 2"><g id="Capa_1-2" data-name="Capa 1"><path class="cls-1" d="M171,0a58.58,58.58,0,0,0-1.18,10.55,21.35,21.35,0,0,0,2.48,9.59Q175,25.6,183.66,35.31q15.75,18.13,21.74,25.77a110.85,110.85,0,0,1,9.78,14.52q8.4,15,8.41,30.09a58.23,58.23,0,0,1-4.27,22,51,51,0,0,1-11.85,18q-16.35,16.13-47,16.12H60.14V122.87h95.2q12.43,0,17.77-6.28a16.88,16.88,0,0,0,4.39-11A23.48,23.48,0,0,0,173.82,93Q169,85.2,148.23,61.38q-16.59-19-20.74-29.15Q123.71,23,123.7,15.52A95,95,0,0,1,125.36,0Z"/><rect class="cls-2" width="109.25" height="38.86"/><polygon class="cls-1" points="0 62.21 0 107.17 0 161.74 44.43 161.74 44.43 107.17 99.53 107.17 99.53 62.21 44.4 62.21 0 62.21"/></g></g></svg>