<svg xmlns="http://www.w3.org/2000/svg" viewBox="0 0 134.68 97.43"><defs><style>.cls-1{fill:#176095;}.cls-2{fill:#8596bc;}</style></defs><title>Icono-Color</title><g id="Capa_2" data-name="Capa 2"><g id="Capa_1-2" data-name="Capa 1"><path class="cls-1" d="M103,0a35.8,35.8,0,0,0-.71,6.35,12.86,12.86,0,0,0,1.5,5.78q1.64,3.28,6.85,9.14,9.5,10.92,13.1,15.52a66.37,66.37,0,0,1,5.88,8.75,36.83,36.83,0,0,1,5.07,18.13,35.06,35.06,0,0,1-2.57,13.24A30.94,30.94,0,0,1,125,87.72q-9.86,9.7-28.34,9.71H36.23V74H93.57q7.5,0,10.71-3.78a10.16,10.16,0,0,0,2.64-6.64A14.16,14.16,0,0,0,104.71,56Q101.77,51.32,89.29,37,79.3,25.56,76.8,19.41A26.7,26.7,0,0,1,74.51,9.35a58.17,58.17,0,0,1,1-9.35Z"/><rect class="cls-2" width="65.81" height="23.41"/><polygon class="cls-1" points="0 37.47 0 64.55 0 97.42 26.77 97.42 26.77 64.55 59.95 64.55 59.95 37.47 26.74 37.47 0 37.47"/></g></g></svg>