<svg xmlns="http://www.w3.org/2000/svg" viewBox="0 0 435.24 97.43"><defs><style>.cls-1{fill:#176095;}.cls-2{fill:#8596bc;}</style></defs><title>Logo-Horizontal-Color</title><g id="Capa_2" data-name="Capa 2"><g id="Capa_1-2" data-name="Capa 1"><path class="cls-1" d="M103,0a35.8,35.8,0,0,0-.71,6.35,12.86,12.86,0,0,0,1.5,5.78q1.64,3.28,6.85,9.14,9.5,10.92,13.1,15.52a66.37,66.37,0,0,1,5.88,8.75,36.83,36.83,0,0,1,5.07,18.13,35.06,35.06,0,0,1-2.57,13.24A30.94,30.94,0,0,1,125,87.72q-9.86,9.7-28.34,9.71H36.23V74H93.57q7.5,0,10.71-3.78a10.16,10.16,0,0,0,2.64-6.64A14.16,14.16,0,0,0,104.71,56Q101.77,51.32,89.29,37,79.3,25.56,76.8,19.41A26.7,26.7,0,0,1,74.51,9.35a58.17,58.17,0,0,1,1-9.35Z"/><rect class="cls-2" width="65.81" height="23.41"/><polygon class="cls-1" points="0 37.47 0 64.55 0 97.42 26.77 97.42 26.77 64.55 59.95 64.55 59.95 37.47 26.74 37.47 0 37.47"/><path class="cls-1" d="M164.24,60.31V14.61h30.45V21H171.45V34.63h19.44v6H171.45v19.7Z"/><path class="cls-1" d="M213.68,61a17.9,17.9,0,0,1-7.14-1.39A16.64,16.64,0,0,1,201,55.81a17.16,17.16,0,0,1-3.54-5.54,17.85,17.85,0,0,1-1.25-6.7,18.11,18.11,0,0,1,1.25-6.72,17.32,17.32,0,0,1,3.54-5.6,16.3,16.3,0,0,1,5.51-3.8,18.07,18.07,0,0,1,7.21-1.38,17.42,17.42,0,0,1,7.11,1.41,17.19,17.19,0,0,1,5.44,3.77,16.11,16.11,0,0,1,3.44,5.47,18.25,18.25,0,0,1,1.19,6.53c0,.52,0,1-.06,1.45s-.09.83-.13,1.13h-27a11.51,11.51,0,0,0,1.06,4.05A10.48,10.48,0,0,0,207.08,53a9.92,9.92,0,0,0,6.86,2.74,11.55,11.55,0,0,0,2.8-.35,10,10,0,0,0,2.54-1,9.13,9.13,0,0,0,2.06-1.64,8,8,0,0,0,1.42-2.13l6.05,1.74a14.06,14.06,0,0,1-5.76,6.21A17.89,17.89,0,0,1,213.68,61Zm10.24-20A11.33,11.33,0,0,0,222.85,37,10.21,10.21,0,0,0,220.63,34a9.79,9.79,0,0,0-3.15-2,10.34,10.34,0,0,0-3.8-.71,10.11,10.11,0,0,0-3.77.71,9.64,9.64,0,0,0-5.31,5,12,12,0,0,0-1,3.93Z"/><path class="cls-1" d="M250.44,61a14.47,14.47,0,0,1-6.31-1.39,15.77,15.77,0,0,1-5-3.76,17.4,17.4,0,0,1-3.32-5.57,20.28,20.28,0,0,1-.06-13.52,17.55,17.55,0,0,1,3.15-5.5,15.2,15.2,0,0,1,4.76-3.77,13.19,13.19,0,0,1,6-1.38,13,13,0,0,1,7.15,2,14.31,14.31,0,0,1,4.83,5V13.32h7.08V51.94a2.77,2.77,0,0,0,.42,1.74,2,2,0,0,0,1.51.58v6.05c-.73.13-1.32.22-1.77.26s-.83.06-1.13.06a5.34,5.34,0,0,1-3.47-1.09,3.86,3.86,0,0,1-1.49-2.83l-.12-2.51a13.44,13.44,0,0,1-5.09,4.95A14.41,14.41,0,0,1,250.44,61Zm1.73-6.06a9.81,9.81,0,0,0,3.09-.51A11,11,0,0,0,258.1,53a10.4,10.4,0,0,0,2.22-2.12,7.8,7.8,0,0,0,1.32-2.64V39.39a10.63,10.63,0,0,0-1.65-3,11.76,11.76,0,0,0-2.41-2.32,11.44,11.44,0,0,0-2.86-1.48,9.54,9.54,0,0,0-3.06-.51,8,8,0,0,0-3.9,1,9.93,9.93,0,0,0-3,2.58,12.84,12.84,0,0,0-2.77,7.91,12,12,0,0,0,.8,4.38A11.52,11.52,0,0,0,245,51.56,11,11,0,0,0,248.21,54,8.91,8.91,0,0,0,252.17,54.9Z"/><path class="cls-1" d="M293,61a18,18,0,0,1-7.14-1.39,16.6,16.6,0,0,1-5.5-3.76,16.83,16.83,0,0,1-3.54-5.54,17.86,17.86,0,0,1-1.26-6.7,18.11,18.11,0,0,1,1.26-6.72,17,17,0,0,1,3.54-5.6,16.26,16.26,0,0,1,5.5-3.8,18.14,18.14,0,0,1,7.21-1.38,17.36,17.36,0,0,1,7.11,1.41,17,17,0,0,1,5.44,3.77,16.29,16.29,0,0,1,3.45,5.47,18.25,18.25,0,0,1,1.19,6.53c0,.52,0,1-.07,1.45s-.08.83-.13,1.13h-27a11.51,11.51,0,0,0,1.06,4.05A10.33,10.33,0,0,0,286.39,53a9.57,9.57,0,0,0,3.15,2,9.71,9.71,0,0,0,3.7.71,11.49,11.49,0,0,0,2.8-.35,10.25,10.25,0,0,0,2.55-1,9.07,9.07,0,0,0,2.05-1.64,7.55,7.55,0,0,0,1.42-2.13l6.05,1.74a14.06,14.06,0,0,1-5.76,6.21A17.84,17.84,0,0,1,293,61Zm10.24-20A11.32,11.32,0,0,0,302.16,37,10.21,10.21,0,0,0,299.94,34a9.84,9.84,0,0,0-3.16-2,10.34,10.34,0,0,0-3.8-.71,10.06,10.06,0,0,0-3.76.71,9.64,9.64,0,0,0-5.31,5,11.75,11.75,0,0,0-1,3.93Z"/><path class="cls-1" d="M344,25.36a10,10,0,0,0-1.87-1.51,19.09,19.09,0,0,0-2.87-1.52,20.82,20.82,0,0,0-3.6-1.16,18,18,0,0,0-4-.45q-4.58,0-6.73,1.68A5.52,5.52,0,0,0,322.72,27a5,5,0,0,0,.68,2.74,5.73,5.73,0,0,0,2.09,1.86A16.36,16.36,0,0,0,329,33.05q2.13.62,5,1.32a55.66,55.66,0,0,1,6.27,1.87A17.64,17.64,0,0,1,345,38.75a10.29,10.29,0,0,1,3,3.63,11.78,11.78,0,0,1,1.06,5.25,12.73,12.73,0,0,1-1.32,6,11.25,11.25,0,0,1-3.6,4.08A15.79,15.79,0,0,1,338.82,60a27.55,27.55,0,0,1-6.51.74,32.47,32.47,0,0,1-10.07-1.57,29.06,29.06,0,0,1-8.79-4.61l3.29-6.18a15.05,15.05,0,0,0,2.41,1.87,22,22,0,0,0,3.67,1.9,32.22,32.22,0,0,0,4.54,1.48,20.73,20.73,0,0,0,5.08.61A12.18,12.18,0,0,0,339,52.78a4.88,4.88,0,0,0,2.32-4.38,4.66,4.66,0,0,0-.87-2.89,7.42,7.42,0,0,0-2.48-2,21.22,21.22,0,0,0-3.93-1.58q-2.31-.7-5.28-1.48a53.32,53.32,0,0,1-5.95-1.9,14.88,14.88,0,0,1-4.22-2.41,9.58,9.58,0,0,1-2.54-3.32,11,11,0,0,1-.87-4.6,13.21,13.21,0,0,1,1.29-6A12.75,12.75,0,0,1,320,17.86a15.35,15.35,0,0,1,5.24-2.67,23,23,0,0,1,6.57-.9,24,24,0,0,1,8.56,1.48,28.14,28.14,0,0,1,6.89,3.67Z"/><path class="cls-1" d="M370.49,61a17.53,17.53,0,0,1-7.18-1.42,16.59,16.59,0,0,1-5.44-3.8,16.82,16.82,0,0,1-3.48-5.57,18.79,18.79,0,0,1,0-13.32,16.58,16.58,0,0,1,3.51-5.57,17.2,17.2,0,0,1,5.47-3.8,18.66,18.66,0,0,1,14.23,0,17.2,17.2,0,0,1,5.47,3.8,16.58,16.58,0,0,1,3.51,5.57,18.79,18.79,0,0,1,0,13.32,16.58,16.58,0,0,1-3.51,5.57,17,17,0,0,1-5.47,3.8A17.39,17.39,0,0,1,370.49,61ZM360.44,43.57a12.6,12.6,0,0,0,.78,4.51,11.05,11.05,0,0,0,2.12,3.57A9.7,9.7,0,0,0,366.53,54a9.45,9.45,0,0,0,7.92,0,9.58,9.58,0,0,0,3.18-2.41,11.75,11.75,0,0,0,2.13-3.6,13.48,13.48,0,0,0,0-9,11.61,11.61,0,0,0-2.13-3.64A9.72,9.72,0,0,0,374.45,33a9.17,9.17,0,0,0-4-.87,8.72,8.72,0,0,0-3.9.9,10.09,10.09,0,0,0-3.18,2.44,12,12,0,0,0-2.16,3.64A12.31,12.31,0,0,0,360.44,43.57Z"/><path class="cls-1" d="M395.53,60.31V33H391V27.48h4.51V26.13q0-6.24,2.89-9.85a9.55,9.55,0,0,1,7.86-3.6,15.43,15.43,0,0,1,4.05.54,18.17,18.17,0,0,1,3.8,1.52L412.58,20a9.6,9.6,0,0,0-2.28-1,9,9,0,0,0-2.54-.39,4.4,4.4,0,0,0-3.83,1.87,9.33,9.33,0,0,0-1.32,5.41v1.54h8.62V33h-8.62V60.31Z"/><path class="cls-1" d="M435.24,58.57A33.52,33.52,0,0,1,431.51,60a15.69,15.69,0,0,1-5.09.81,10.81,10.81,0,0,1-3.15-.45A7.55,7.55,0,0,1,420.66,59a6.12,6.12,0,0,1-1.77-2.35,8.55,8.55,0,0,1-.64-3.5V32.12h-4.44V26.65h4.44V15.57h7.08V26.65h7.34v5.47h-7.34V50.91a3.46,3.46,0,0,0,1.13,2.61,3.78,3.78,0,0,0,2.47.8,8,8,0,0,0,2.84-.51,21,21,0,0,0,2-.84Z"/><path class="cls-1" d="M172.05,75.1a3.73,3.73,0,0,0-1.32-.91,4.86,4.86,0,0,0-1.89-.34,3.54,3.54,0,0,0-2.26.58,2,2,0,0,0-.71,1.6,1.75,1.75,0,0,0,.19.87,1.63,1.63,0,0,0,.58.59,5,5,0,0,0,1,.43c.41.12.9.24,1.46.36a14.31,14.31,0,0,1,1.7.45,4.62,4.62,0,0,1,1.28.62,2.66,2.66,0,0,1,.81.9,2.75,2.75,0,0,1,.28,1.32,3,3,0,0,1-.31,1.41,2.7,2.7,0,0,1-.88,1,3.82,3.82,0,0,1-1.34.59,7.5,7.5,0,0,1-1.7.19A7,7,0,0,1,164.24,83l.58-.94a4.47,4.47,0,0,0,.76.63,5.25,5.25,0,0,0,1,.52,5.92,5.92,0,0,0,1.15.35,6.73,6.73,0,0,0,1.29.12,4.08,4.08,0,0,0,2.19-.5,1.69,1.69,0,0,0,.79-1.53,1.74,1.74,0,0,0-.22-.92,2.09,2.09,0,0,0-.67-.65,5.29,5.29,0,0,0-1.11-.47c-.44-.13-1-.26-1.54-.39s-1.16-.3-1.62-.45a4.19,4.19,0,0,1-1.18-.58,2.27,2.27,0,0,1-.72-.83,2.73,2.73,0,0,1-.24-1.2,3.36,3.36,0,0,1,.31-1.45,2.72,2.72,0,0,1,.87-1.06,4.07,4.07,0,0,1,1.32-.65,6.35,6.35,0,0,1,1.69-.22,5.69,5.69,0,0,1,2.09.36,5.41,5.41,0,0,1,1.66,1Z"/><path class="cls-1" d="M183.12,83.62v1h-7.89V72.9H183v1h-6.58v4.23h5.74v1h-5.74v4.48Z"/><path class="cls-1" d="M185.3,84.65V72.9h5a3,3,0,0,1,1.39.33,3.5,3.5,0,0,1,1.1.84,3.86,3.86,0,0,1,.72,1.18,3.71,3.71,0,0,1,.26,1.34,4,4,0,0,1-.19,1.24,3.7,3.7,0,0,1-.53,1,3.28,3.28,0,0,1-.82.8,3.07,3.07,0,0,1-1.07.44L194,84.65h-1.3l-2.77-4.33h-3.47v4.33Zm1.16-5.36h3.84a1.93,1.93,0,0,0,.93-.22,2.21,2.21,0,0,0,.72-.61,2.87,2.87,0,0,0,.47-.86,3.05,3.05,0,0,0,.16-1,2.67,2.67,0,0,0-.19-1,3.06,3.06,0,0,0-.51-.86,2.69,2.69,0,0,0-.76-.58,2.13,2.13,0,0,0-.92-.21h-3.74Z"/><path class="cls-1" d="M195.77,72.9,200,83.21l4.18-10.31h1.21l-4.9,11.75h-1L194.57,72.9Z"/><path class="cls-1" d="M207.06,84.65V72.9h1.15V84.65Z"/><path class="cls-1" d="M210.38,78.69a6.3,6.3,0,0,1,.37-2.11,5.75,5.75,0,0,1,1.09-1.87,5.5,5.5,0,0,1,1.75-1.35,5.17,5.17,0,0,1,2.37-.52,4.83,4.83,0,0,1,2.68.71,4.26,4.26,0,0,1,1.65,1.85l-.91.56a3.53,3.53,0,0,0-.69-1,3.8,3.8,0,0,0-.87-.65,3.56,3.56,0,0,0-1-.35,4.65,4.65,0,0,0-1-.11,3.88,3.88,0,0,0-1.87.43,4.26,4.26,0,0,0-1.36,1.12,4.86,4.86,0,0,0-.84,1.57,5.58,5.58,0,0,0-.28,1.76,5.39,5.39,0,0,0,1.26,3.45,4.45,4.45,0,0,0,1.39,1.09,3.85,3.85,0,0,0,1.75.41,4.6,4.6,0,0,0,1-.13,3.73,3.73,0,0,0,1-.4,4.38,4.38,0,0,0,.9-.67,3.64,3.64,0,0,0,.69-1l1,.5a3.57,3.57,0,0,1-.79,1.16,5.51,5.51,0,0,1-1.14.86,5.76,5.76,0,0,1-1.34.53,5.57,5.57,0,0,1-1.38.18,4.71,4.71,0,0,1-2.21-.53,5.6,5.6,0,0,1-1.74-1.38,6.38,6.38,0,0,1-1.13-1.94A6.05,6.05,0,0,1,210.38,78.69Z"/><path class="cls-1" d="M222.51,84.65V72.9h1.15V84.65Z"/><path class="cls-1" d="M231.34,84.73a5,5,0,0,1-2.24-.5,5.79,5.79,0,0,1-1.75-1.34,6.38,6.38,0,0,1-1.52-4.11,6.08,6.08,0,0,1,.42-2.25,6.22,6.22,0,0,1,1.17-1.91,5.51,5.51,0,0,1,1.75-1.31,4.88,4.88,0,0,1,2.19-.49,5,5,0,0,1,2.24.52,5.53,5.53,0,0,1,1.73,1.37,6.2,6.2,0,0,1,1.12,1.91,6.16,6.16,0,0,1,0,4.42,6.42,6.42,0,0,1-1.16,1.9,5.63,5.63,0,0,1-1.75,1.3A4.87,4.87,0,0,1,231.34,84.73Zm-4.35-6a5.43,5.43,0,0,0,.31,1.84,4.88,4.88,0,0,0,.9,1.57,4.27,4.27,0,0,0,1.37,1.09,3.85,3.85,0,0,0,1.77.41,3.74,3.74,0,0,0,1.8-.43,4.3,4.3,0,0,0,1.37-1.13,4.91,4.91,0,0,0,.87-1.57,5.21,5.21,0,0,0,.31-1.78,5.49,5.49,0,0,0-.32-1.85,5.22,5.22,0,0,0-.9-1.56,4.53,4.53,0,0,0-1.38-1.08,3.67,3.67,0,0,0-1.75-.41,3.85,3.85,0,0,0-1.8.42,4.42,4.42,0,0,0-1.38,1.12A5.33,5.33,0,0,0,227,78.78Z"/><path class="cls-1" d="M245.9,75.1a3.77,3.77,0,0,0-1.33-.91,4.85,4.85,0,0,0-1.88-.34,3.55,3.55,0,0,0-2.27.58,2,2,0,0,0-.71,1.6,1.75,1.75,0,0,0,.19.87,1.66,1.66,0,0,0,.59.59,4.63,4.63,0,0,0,1,.43q.63.18,1.47.36a14.12,14.12,0,0,1,1.69.45,4.69,4.69,0,0,1,1.29.62,2.66,2.66,0,0,1,.81.9,2.87,2.87,0,0,1,.28,1.32,3,3,0,0,1-.32,1.41,2.76,2.76,0,0,1-.87,1,4,4,0,0,1-1.34.59,7.59,7.59,0,0,1-1.71.19A7,7,0,0,1,238.09,83l.58-.94a4.8,4.8,0,0,0,.75.63,5.34,5.34,0,0,0,1,.52,5.72,5.72,0,0,0,1.15.35,6.58,6.58,0,0,0,1.29.12,4.13,4.13,0,0,0,2.19-.5,1.71,1.71,0,0,0,.78-1.53,1.74,1.74,0,0,0-.22-.92,2,2,0,0,0-.67-.65,5.29,5.29,0,0,0-1.11-.47c-.44-.13-.95-.26-1.54-.39s-1.15-.3-1.62-.45a4.26,4.26,0,0,1-1.17-.58,2.27,2.27,0,0,1-.72-.83,2.73,2.73,0,0,1-.24-1.2,3.36,3.36,0,0,1,.3-1.45,2.91,2.91,0,0,1,.87-1.06A4.23,4.23,0,0,1,241,73a6.27,6.27,0,0,1,1.68-.22,5.74,5.74,0,0,1,2.1.36,5.53,5.53,0,0,1,1.66,1Z"/><path class="cls-1" d="M253.29,84.65V72.9h1.16V84.65Z"/><path class="cls-1" d="M258.55,75.05v9.6h-1.16V72.9h.9l7.77,9.78V72.92h1.16V84.65h-1Z"/><path class="cls-1" d="M270.16,84.65V72.9h7.71v1h-6.55v4.32h5.53v1h-5.53v5.44Z"/><path class="cls-1" d="M284.37,84.73a5.08,5.08,0,0,1-2.24-.5,5.63,5.63,0,0,1-1.74-1.34A6.23,6.23,0,0,1,279.26,81a6.43,6.43,0,0,1-.4-2.2,6.08,6.08,0,0,1,.43-2.25,6.39,6.39,0,0,1,1.16-1.91,5.55,5.55,0,0,1,1.76-1.31,4.87,4.87,0,0,1,2.18-.49,4.92,4.92,0,0,1,2.24.52,5.57,5.57,0,0,1,1.74,1.37,6.17,6.17,0,0,1,1.11,1.91,6.16,6.16,0,0,1,0,4.42,6.22,6.22,0,0,1-1.16,1.9,5.59,5.59,0,0,1-1.74,1.3A4.92,4.92,0,0,1,284.37,84.73Zm-4.35-6a5.44,5.44,0,0,0,.32,1.84,4.85,4.85,0,0,0,.89,1.57,4.38,4.38,0,0,0,1.37,1.09,3.85,3.85,0,0,0,1.77.41,3.78,3.78,0,0,0,1.81-.43,4.41,4.41,0,0,0,1.37-1.13,5.33,5.33,0,0,0,.87-1.57,5.45,5.45,0,0,0,.3-1.78,5.26,5.26,0,0,0-.32-1.85,4.83,4.83,0,0,0-.9-1.56,4.49,4.49,0,0,0-1.37-1.08,3.71,3.71,0,0,0-1.76-.41,3.85,3.85,0,0,0-1.8.42,4.27,4.27,0,0,0-1.37,1.12,5,5,0,0,0-.87,1.57A5.23,5.23,0,0,0,280,78.78Z"/><path class="cls-1" d="M292.07,84.65V72.9h5a3,3,0,0,1,1.4.33,3.62,3.62,0,0,1,1.1.84,4.29,4.29,0,0,1,.72,1.18,3.7,3.7,0,0,1,.25,1.34,4,4,0,0,1-.19,1.24,3.7,3.7,0,0,1-.53,1,3.12,3.12,0,0,1-.82.8,3,3,0,0,1-1.07.44l2.88,4.53h-1.31l-2.76-4.33h-3.48v4.33Zm1.15-5.36h3.84a2,2,0,0,0,.94-.22,2.21,2.21,0,0,0,.72-.61,3,3,0,0,0,.62-1.87,2.92,2.92,0,0,0-.7-1.87,2.56,2.56,0,0,0-.76-.58,2.1,2.1,0,0,0-.92-.21h-3.74Z"/><path class="cls-1" d="M313.27,84.65V75L309,82.47h-.68L304,75v9.65h-1.15V72.9h1.19l4.58,8,4.62-8h1.17V84.65Z"/><path class="cls-1" d="M321,72.9h1l4.88,11.75h-1.22L324.12,81h-5.27l-1.51,3.67H316.1Zm2.85,7.17-2.37-5.81-2.39,5.81Zm-2.25-8.77-.74-.28,1-1.54H323Z"/><path class="cls-1" d="M335.74,73.93h-4.19V84.65h-1.16V73.93h-4.18v-1h9.53Z"/><path class="cls-1" d="M337.49,84.65V72.9h1.16V84.65Z"/><path class="cls-1" d="M340.82,78.69a6.3,6.3,0,0,1,.37-2.11,5.9,5.9,0,0,1,1.08-1.87A5.62,5.62,0,0,1,344,73.36a5.22,5.22,0,0,1,2.37-.52,4.86,4.86,0,0,1,2.69.71,4.3,4.3,0,0,1,1.64,1.85l-.91.56a3.3,3.3,0,0,0-.68-1,3.62,3.62,0,0,0-1.83-1,4.75,4.75,0,0,0-1-.11,3.91,3.91,0,0,0-1.87.43,4.37,4.37,0,0,0-1.36,1.12,5.06,5.06,0,0,0-.84,1.57,5.89,5.89,0,0,0-.28,1.76,5.33,5.33,0,0,0,1.27,3.45,4.34,4.34,0,0,0,1.39,1.09,3.78,3.78,0,0,0,1.74.41,4.6,4.6,0,0,0,1-.13,3.61,3.61,0,0,0,1-.4,4.13,4.13,0,0,0,.9-.67,3.46,3.46,0,0,0,.7-1l1,.5a3.59,3.59,0,0,1-.8,1.16A5,5,0,0,1,349,84a5.68,5.68,0,0,1-1.33.53,5.57,5.57,0,0,1-1.38.18,4.72,4.72,0,0,1-2.22-.53,5.84,5.84,0,0,1-1.74-1.38,6.59,6.59,0,0,1-1.13-1.94A6.25,6.25,0,0,1,340.82,78.69Z"/><path class="cls-1" d="M357.56,84.73a5.09,5.09,0,0,1-2.25-.5,5.75,5.75,0,0,1-1.74-1.34A6.23,6.23,0,0,1,352.44,81a6.42,6.42,0,0,1-.39-2.2,6.08,6.08,0,0,1,.42-2.25,6.39,6.39,0,0,1,1.16-1.91,5.66,5.66,0,0,1,1.76-1.31,5.09,5.09,0,0,1,4.42,0,5.57,5.57,0,0,1,1.74,1.37,6.41,6.41,0,0,1,1.12,1.91,6.25,6.25,0,0,1,.39,2.17,6.08,6.08,0,0,1-.42,2.25,6.22,6.22,0,0,1-1.16,1.9,5.59,5.59,0,0,1-1.74,1.3A4.87,4.87,0,0,1,357.56,84.73Zm-4.35-6a5.43,5.43,0,0,0,.31,1.84,5,5,0,0,0,.89,1.57,4.41,4.41,0,0,0,1.38,1.09,3.79,3.79,0,0,0,1.77.41,3.74,3.74,0,0,0,1.8-.43,4.3,4.3,0,0,0,1.37-1.13,4.91,4.91,0,0,0,.87-1.57,5.47,5.47,0,0,0,.31-1.78,5.27,5.27,0,0,0-.33-1.85,4.83,4.83,0,0,0-.9-1.56,4.37,4.37,0,0,0-1.37-1.08,3.67,3.67,0,0,0-1.75-.41,3.86,3.86,0,0,0-1.81.42,4.27,4.27,0,0,0-1.37,1.12,5,5,0,0,0-.87,1.57A5.47,5.47,0,0,0,353.21,78.78Z"/><path class="cls-1" d="M372.11,75.1a3.73,3.73,0,0,0-1.32-.91,4.86,4.86,0,0,0-1.89-.34,3.54,3.54,0,0,0-2.26.58,2,2,0,0,0-.71,1.6,1.75,1.75,0,0,0,.19.87,1.63,1.63,0,0,0,.58.59,5,5,0,0,0,1,.43c.41.12.9.24,1.46.36a14.31,14.31,0,0,1,1.7.45,4.62,4.62,0,0,1,1.28.62,2.47,2.47,0,0,1,.81.9,2.75,2.75,0,0,1,.28,1.32,3,3,0,0,1-.31,1.41,2.7,2.7,0,0,1-.88,1,3.82,3.82,0,0,1-1.34.59,7.5,7.5,0,0,1-1.7.19A7,7,0,0,1,364.3,83l.58-.94a4.47,4.47,0,0,0,.76.63,5.25,5.25,0,0,0,1,.52,5.92,5.92,0,0,0,1.15.35,6.73,6.73,0,0,0,1.29.12,4.08,4.08,0,0,0,2.19-.5,1.69,1.69,0,0,0,.79-1.53,1.74,1.74,0,0,0-.22-.92,2.09,2.09,0,0,0-.67-.65,5.29,5.29,0,0,0-1.11-.47c-.44-.13-1-.26-1.54-.39s-1.16-.3-1.62-.45a4.33,4.33,0,0,1-1.18-.58,2.27,2.27,0,0,1-.72-.83,2.73,2.73,0,0,1-.23-1.2,3.36,3.36,0,0,1,.3-1.45,2.72,2.72,0,0,1,.87-1.06,4.17,4.17,0,0,1,1.32-.65,6.35,6.35,0,0,1,1.69-.22,5.69,5.69,0,0,1,2.09.36,5.58,5.58,0,0,1,1.67,1Z"/></g></g></svg>